 <svg  version="1.0" xmlns="http://www.w3.org/2000/svg"  width="300.000000pt" height="450.000000pt" viewBox="0 0 300.000000 450.000000"  preserveAspectRatio="xMidYMid meet">  <g transform="translate(0.000000,450.000000) scale(0.050000,-0.050000)" fill="#e96e0d" stroke="none"> <path d="M2732 6957 c10 -16 4 -20 -17 -12 -51 20 -180 -147 -134 -176 14 -9 14 -21 -1 -40 -15 -17 -16 -39 -4 -63 31 -60 25 -300 -8 -327 -15 -13 -28 -33 -28 -44 0 -23 -141 -222 -165 -232 -8 -3 -10 -15 -4 -25 7 -11 0 -17 -15 -13 -14 3 -24 -6 -21 -20 3 -14 -3 -23 -13 -20 -28 8 -224 -226 -209 -250 7 -12 4 -15 -9 -8 -11 8 -27 5 -34 -7 -7 -11 -44 -20 -82 -20 -49 0 -66 -7 -56 -23 10 -16 4 -20 -16 -12 -86 33 -536 -421 -536 -540 0 -14 -8 -25 -18 -25 -17 0 -49 -75 -44 -105 1 -8 -6 -15 -16 -15 -10 0 -41 -56 -69 -125 -175 -425 -153 -1201 43 -1495 18 -27 33 -57 33 -66 1 -8 13 -23 28 -32 14 -9 27 -24 27 -34 4 -103 387 -568 441 -535 12 7 15 4 8 -8 -28 -45 414 -316 502 -309 27 2 42 -5 35 -16 -13 -20 13 -27 75 -21 19 2 35 -7 35 -19 0 -13 20 -21 45 -19 79 6 118 0 106 -19 -12 -20 247 -62 389 -62 142 0 401 42 389 62 -6 10 -3 18 8 18 11 0 35 6 55 13 22 9 30 6 21 -8 -8 -13 1 -17 27 -11 22 6 35 18 30 26 -5 8 8 20 30 26 22 6 40 2 40 -7 0 -10 13 -13 30 -6 16 6 25 19 19 29 -6 10 14 18 45 18 154 0 591 332 796 604 97 129 274 441 266 469 -2 9 7 37 21 62 123 223 140 1225 21 1225 -9 0 -12 14 -5 30 6 17 1 30 -11 30 -12 0 -22 23 -22 50 0 28 -10 50 -21 50 -12 0 -16 9 -9 20 7 11 1 20 -12 20 -14 0 -19 6 -12 13 74 74 -496 726 -659 753 -71 12 -130 58 -151 116 -11 32 -37 68 -58 79 -21 11 -38 36 -39 55 -2 96 -183 168 -264 105 -64 -51 -75 -37 -75 91 0 58 -10 112 -21 119 -12 7 -17 25 -11 40 6 16 -2 41 -18 56 -15 16 -24 32 -19 37 13 14 -144 252 -218 331 -108 116 -290 226 -350 213 -41 -9 -46 -6 -23 10 24 17 19 21 -26 22 -38 0 -52 -8 -42 -23z m92 -180 c359 -192 549 -591 446 -937 -93 -311 -82 -400 49 -400 135 0 239 161 259 399 l12 151 76 -113 c144 -213 167 -391 83 -657 -63 -200 -59 -291 16 -347 65 -48 135 -6 135 80 0 122 94 -15 173 -251 110 -327 36 -670 -197 -911 -127 -130 -138 -132 -205 -44 l-51 67 41 93 c36 83 48 93 105 93 148 1 154 8 154 182 l0 158 -75 0 c-105 1 -165 20 -165 53 0 16 -14 57 -32 90 -30 59 -29 64 16 114 113 125 113 115 -5 234 -128 129 -118 128 -218 37 -77 -69 -82 -71 -155 -47 -103 32 -108 39 -123 162 l-13 107 -145 6 c-161 6 -154 12 -175 -142 -20 -153 -164 -196 -286 -86 -102 93 -105 92 -213 -40 l-92 -113 68 -83 68 -83 -33 -84 c-44 -113 -56 -122 -172 -129 l-100 -6 -6 -140 c-7 -163 14 -190 147 -190 80 0 85 -4 116 -86 54 -141 -16 -268 -118 -213 -241 129 -419 519 -371 816 44 276 87 352 110 197 27 -179 132 -268 201 -170 41 59 39 140 -9 340 -105 438 -45 621 333 1021 298 315 378 567 261 823 -61 131 -63 130 90 49z m-845 -1317 c-21 -61 -38 -133 -38 -160 -1 -29 -48 -112 -112 -198 -646 -858 -300 -2040 695 -2371 1455 -485 2631 1318 1583 2429 l-129 137 -7 142 -8 142 64 -45 c1299 -902 651 -3014 -948 -3090 -1587 -75 -2396 1791 -1274 2942 217 223 228 227 174 72z m1131 -902 c176 -49 309 -259 282 -444 -59 -392 -608 -457 -761 -89 -127 304 158 622 479 533z m1168 -748 c-16 -26 -86 -238 -81 -246 3 -3 -7 -17 -21 -31 -14 -14 -48 -59 -76 -99 -75 -110 -163 -83 -192 60 -10 53 0 74 79 156 51 53 88 103 82 111 -5 8 6 20 24 27 18 7 27 18 21 25 -6 6 7 31 29 54 22 24 59 88 83 143 l44 100 10 -140 c6 -77 4 -149 -2 -160z m-2496 121 c10 7 18 5 16 -5 -7 -41 8 -70 93 -175 52 -63 101 -106 113 -98 12 7 17 5 10 -6 -6 -11 10 -36 37 -56 60 -45 61 -74 6 -172 -45 -81 -83 -85 -133 -15 -15 20 -35 31 -45 25 -11 -6 -19 1 -19 15 0 15 -29 85 -64 156 -64 130 -114 447 -56 355 13 -20 31 -30 42 -24z m794 -155 c34 -34 30 -76 -7 -76 -19 0 -26 -10 -17 -25 10 -19 8 -19 -11 -3 -32 31 -42 128 -12 128 13 0 34 -11 47 -24z m900 -53 c7 -46 -9 -53 -54 -25 -33 21 -13 89 23 77 14 -4 28 -28 31 -52z m-426 -143 c7 -12 -17 -20 -60 -20 -43 0 -67 8 -60 20 7 11 34 20 60 20 26 0 53 -9 60 -20z m-698 -104 c65 -60 99 -78 117 -65 15 10 59 45 98 76 l72 57 88 -34 c87 -33 89 -37 106 -147 l17 -113 150 0 150 0 13 107 c15 123 20 130 122 162 71 23 78 21 162 -48 108 -88 108 -88 203 9 84 86 124 104 91 41 -38 -70 -22 -115 89 -259 128 -167 127 -162 51 -218 -81 -60 -69 -66 -297 146 -242 225 -296 239 -335 85 -7 -31 -37 -74 -65 -96 -47 -37 -52 -57 -63 -235 l-11 -194 -110 0 -110 0 -14 192 c-13 179 -18 196 -75 254 -33 33 -61 78 -61 98 0 139 -99 108 -323 -99 -235 -218 -219 -210 -296 -153 -79 59 -80 57 49 222 111 142 127 187 89 257 -31 59 -7 47 93 -45z m308 -454 c0 -118 -62 -192 -93 -110 -6 15 -23 28 -38 28 -15 0 -38 19 -50 42 -14 26 -15 38 -3 30 12 -7 38 10 60 37 21 27 44 44 51 37 7 -7 13 -2 13 12 0 13 9 19 20 12 11 -7 20 -3 20 9 0 11 5 21 10 21 6 0 10 -53 10 -118z m782 37 c57 -41 80 -119 35 -119 -12 0 -33 -15 -46 -32 -44 -60 -111 -17 -111 69 0 119 36 143 122 82z"/> </g> </svg> 